<svg width="148" height="33" viewBox="0 0 148 33" fill="none" xmlns="http://www.w3.org/2000/svg">
<path d="M48.4975 8.4694L42.878 25H39.0563L33.4481 8.4694H36.9872L40.0965 18.3063C40.1493 18.4722 40.236 18.785 40.3566 19.2448C40.4772 19.6971 40.5978 20.1795 40.7184 20.6921C40.8466 21.1971 40.9333 21.6155 40.9785 21.9472C41.0237 21.6155 41.1029 21.1971 41.2159 20.6921C41.3365 20.1871 41.4534 19.7084 41.5664 19.2561C41.687 18.7963 41.7737 18.4797 41.8265 18.3063L44.9585 8.4694H48.4975ZM53.4124 12.0989C55.1084 12.0989 56.4087 12.4682 57.3132 13.207C58.2178 13.9457 58.6701 15.0688 58.6701 16.5764V25H56.2617L55.5946 23.2814H55.5042C55.1423 23.7336 54.773 24.103 54.3961 24.3894C54.0192 24.6759 53.5858 24.8869 53.0958 25.0226C52.6058 25.1583 52.0103 25.2261 51.3093 25.2261C50.5631 25.2261 49.8922 25.0829 49.2967 24.7965C48.7087 24.51 48.2452 24.0728 47.906 23.4849C47.5667 22.8894 47.3971 22.1356 47.3971 21.2235C47.3971 19.8818 47.8683 18.8943 48.8105 18.2611C49.7527 17.6204 51.1661 17.2661 53.0506 17.1983L55.2441 17.1304V16.5764C55.2441 15.9131 55.0707 15.4269 54.724 15.1178C54.3772 14.8088 53.8948 14.6542 53.2767 14.6542C52.6661 14.6542 52.0669 14.7409 51.4789 14.9143C50.891 15.0877 50.303 15.3063 49.715 15.5701L48.5731 13.2409C49.2439 12.8866 49.994 12.6077 50.8231 12.4042C51.6598 12.2007 52.5229 12.0989 53.4124 12.0989ZM55.2441 19.1431L53.9099 19.1883C52.7943 19.2184 52.0179 19.4182 51.5807 19.7875C51.151 20.1569 50.9362 20.6431 50.9362 21.2461C50.9362 21.7738 51.0907 22.1507 51.3998 22.3768C51.7088 22.5954 52.1121 22.7047 52.6096 22.7047C53.3483 22.7047 53.9702 22.4861 54.4752 22.0489C54.9878 21.6117 55.2441 20.9898 55.2441 20.1833V19.1431ZM62.7369 18.5438L58.6664 12.3589H62.5786L65.0322 16.3842L67.5084 12.3589H71.4206L67.3049 18.5438L71.6128 25H67.6893L65.0322 20.6695L62.3638 25H58.4516L62.7369 18.5438Z" fill="#2072EC"/>
<path d="M83.9234 20.6016C83.9234 21.5816 83.6784 22.4183 83.1884 23.1118C82.706 23.7977 82.0276 24.3216 81.1532 24.6834C80.2788 25.0452 79.2499 25.2261 78.0664 25.2261C77.4408 25.2261 76.8491 25.196 76.2913 25.1357C75.7335 25.0754 75.2209 24.9887 74.7535 24.8756C74.2862 24.7626 73.8754 24.6231 73.5211 24.4573V22.6143C74.0864 22.8479 74.7761 23.0665 75.5902 23.2701C76.4043 23.466 77.2561 23.564 78.1456 23.564C78.9747 23.564 79.6758 23.4547 80.2487 23.2361C80.8215 23.01 81.255 22.6896 81.5489 22.2751C81.8505 21.8529 82.0012 21.3479 82.0012 20.7599C82.0012 20.1946 81.8768 19.7235 81.6281 19.3466C81.3793 18.9621 80.9648 18.6154 80.3843 18.3063C79.8115 17.9898 79.0275 17.6543 78.0325 17.3C77.3315 17.0513 76.7134 16.7799 76.1782 16.4859C75.643 16.1844 75.1945 15.8452 74.8327 15.4683C74.4709 15.0914 74.1957 14.6542 74.0073 14.1567C73.8264 13.6592 73.7359 13.0901 73.7359 12.4494C73.7359 11.5675 73.9583 10.8137 74.403 10.188C74.8553 9.55485 75.4772 9.07243 76.2686 8.74076C77.0677 8.40155 77.9835 8.23195 79.0162 8.23195C79.8981 8.23195 80.7122 8.31487 81.4585 8.4807C82.2123 8.64654 82.902 8.8689 83.5276 9.14781L82.9284 10.7986C82.3329 10.5499 81.6997 10.3426 81.0288 10.1767C80.3655 10.0109 79.6795 9.92798 78.971 9.92798C78.2624 9.92798 77.6632 10.0335 77.1732 10.2446C76.6908 10.4481 76.3214 10.7383 76.0651 11.1152C75.8088 11.4921 75.6807 11.9406 75.6807 12.4607C75.6807 13.0411 75.8013 13.5236 76.0425 13.908C76.2913 14.2924 76.6832 14.6354 77.2184 14.9369C77.7611 15.2309 78.4772 15.5399 79.3667 15.8641C80.3391 16.2184 81.1645 16.5952 81.8429 16.9948C82.5213 17.3867 83.0377 17.8692 83.392 18.442C83.7462 19.0074 83.9234 19.7272 83.9234 20.6016ZM95.6223 18.7812C95.6223 19.7989 95.4904 20.7072 95.2266 21.5062C94.9628 22.3052 94.5821 22.9798 94.0846 23.5301C93.5871 24.0804 92.9841 24.5025 92.2755 24.7965C91.5745 25.0829 90.7792 25.2261 89.8898 25.2261C89.0606 25.2261 88.2993 25.0829 87.6058 24.7965C86.9198 24.5025 86.3243 24.0804 85.8193 23.5301C85.3218 22.9798 84.9336 22.3052 84.6547 21.5062C84.3833 20.7072 84.2477 19.7989 84.2477 18.7812C84.2477 17.4244 84.4776 16.2711 84.9374 15.3213C85.3972 14.364 86.053 13.6366 86.9048 13.1391C87.7641 12.6341 88.7855 12.3816 89.9689 12.3816C91.0996 12.3816 92.0871 12.6341 92.9313 13.1391C93.7831 13.6442 94.4427 14.3753 94.91 15.3326C95.3849 16.2824 95.6223 17.432 95.6223 18.7812ZM86.1924 18.7812C86.1924 19.7762 86.3243 20.6393 86.5882 21.3705C86.852 22.1017 87.259 22.667 87.8093 23.0665C88.3596 23.466 89.0681 23.6658 89.935 23.6658C90.7943 23.6658 91.4991 23.466 92.0494 23.0665C92.6072 22.667 93.018 22.1017 93.2818 21.3705C93.5456 20.6393 93.6776 19.7762 93.6776 18.7812C93.6776 17.7938 93.5456 16.942 93.2818 16.2259C93.018 15.5023 92.611 14.9444 92.0607 14.5525C91.5104 14.1605 90.7981 13.9645 89.9237 13.9645C88.6347 13.9645 87.6887 14.3904 87.0857 15.2422C86.4902 16.094 86.1924 17.2737 86.1924 18.7812ZM98.6716 25H96.7833V7.40655H98.6716V25ZM110.789 12.6077V25H109.251L108.98 23.2587H108.878C108.622 23.6884 108.29 24.0502 107.883 24.3442C107.476 24.6382 107.016 24.8568 106.504 25C105.999 25.1508 105.46 25.2261 104.887 25.2261C103.907 25.2261 103.085 25.0678 102.422 24.7512C101.758 24.4347 101.257 23.9447 100.918 23.2814C100.586 22.618 100.421 21.7662 100.421 20.726V12.6077H102.32V20.5903C102.32 21.623 102.554 22.3957 103.021 22.9082C103.488 23.4133 104.201 23.6658 105.158 23.6658C106.078 23.6658 106.809 23.4924 107.352 23.1457C107.902 22.7989 108.298 22.2901 108.539 21.6193C108.78 20.9408 108.901 20.1117 108.901 19.1317V12.6077H110.789ZM116.676 23.6884C116.985 23.6884 117.302 23.662 117.626 23.6093C117.95 23.5565 118.214 23.4924 118.417 23.417V24.8756C118.199 24.9736 117.894 25.0565 117.502 25.1244C117.117 25.1922 116.74 25.2261 116.371 25.2261C115.715 25.2261 115.12 25.1131 114.584 24.8869C114.049 24.6533 113.62 24.2613 113.295 23.711C112.979 23.1608 112.82 22.3994 112.82 21.427V14.0776H111.057V13.1617L112.832 12.4268L113.578 9.73576H114.709V12.6077H118.338V14.0776H114.709V21.3705C114.709 22.1469 114.886 22.7273 115.24 23.1118C115.602 23.4962 116.081 23.6884 116.676 23.6884ZM120.72 12.6077V25H118.843V12.6077H120.72ZM119.805 7.97189C120.114 7.97189 120.377 8.07366 120.596 8.27718C120.822 8.47316 120.935 8.78222 120.935 9.20434C120.935 9.61892 120.822 9.92798 120.596 10.1315C120.377 10.335 120.114 10.4368 119.805 10.4368C119.48 10.4368 119.209 10.335 118.99 10.1315C118.779 9.92798 118.674 9.61892 118.674 9.20434C118.674 8.78222 118.779 8.47316 118.99 8.27718C119.209 8.07366 119.48 7.97189 119.805 7.97189ZM133.301 18.7812C133.301 19.7989 133.169 20.7072 132.906 21.5062C132.642 22.3052 132.261 22.9798 131.764 23.5301C131.266 24.0804 130.663 24.5025 129.954 24.7965C129.253 25.0829 128.458 25.2261 127.569 25.2261C126.74 25.2261 125.978 25.0829 125.285 24.7965C124.599 24.5025 124.003 24.0804 123.498 23.5301C123.001 22.9798 122.613 22.3052 122.334 21.5062C122.062 20.7072 121.927 19.7989 121.927 18.7812C121.927 17.4244 122.156 16.2711 122.616 15.3213C123.076 14.364 123.732 13.6366 124.584 13.1391C125.443 12.6341 126.464 12.3816 127.648 12.3816C128.779 12.3816 129.766 12.6341 130.61 13.1391C131.462 13.6442 132.122 14.3753 132.589 15.3326C133.064 16.2824 133.301 17.432 133.301 18.7812ZM123.871 18.7812C123.871 19.7762 124.003 20.6393 124.267 21.3705C124.531 22.1017 124.938 22.667 125.488 23.0665C126.038 23.466 126.747 23.6658 127.614 23.6658C128.473 23.6658 129.178 23.466 129.728 23.0665C130.286 22.667 130.697 22.1017 130.961 21.3705C131.225 20.6393 131.356 19.7762 131.356 18.7812C131.356 17.7938 131.225 16.942 130.961 16.2259C130.697 15.5023 130.29 14.9444 129.74 14.5525C129.189 14.1605 128.477 13.9645 127.603 13.9645C126.314 13.9645 125.368 14.3904 124.765 15.2422C124.169 16.094 123.871 17.2737 123.871 18.7812ZM140.33 12.3816C141.8 12.3816 142.912 12.7434 143.666 13.467C144.42 14.1831 144.797 15.3364 144.797 16.9269V25H142.942V17.0513C142.942 16.0186 142.705 15.246 142.23 14.7334C141.763 14.2208 141.043 13.9645 140.07 13.9645C138.699 13.9645 137.734 14.3527 137.176 15.1291C136.618 15.9055 136.339 17.0324 136.339 18.5099V25H134.462V12.6077H135.977L136.26 14.3942H136.362C136.626 13.957 136.961 13.5914 137.368 13.2974C137.775 12.9959 138.231 12.7698 138.736 12.619C139.241 12.4607 139.773 12.3816 140.33 12.3816Z" fill="black"/>
<path d="M28.3023 16.7241H23.1565L19.2971 28.3023L11.5783 5.14587L7.71887 16.7241H2.573" stroke="black" stroke-width="2.57293" stroke-linecap="round" stroke-linejoin="round"/>
</svg>
